Coordinates
version=1
nRows=5
nColumns=40
inDegrees=yes

Units are S.I. units (second, meters, Newtons, ...)
If the header above contains a line with 'inDegrees', this indicates whether rotational values are in degrees (yes) or radians (no).

endheader
time	pelvis_tilt	pelvis_list	pelvis_rotation	pelvis_tx	pelvis_ty	pelvis_tz	hip_flexion_r	hip_adduction_r	hip_rotation_r	knee_angle_r	knee_angle_r_beta	ankle_angle_r	subtalar_angle_r	mtp_angle_r	hip_flexion_l	hip_adduction_l	hip_rotation_l	knee_angle_l	knee_angle_l_beta	ankle_angle_l	subtalar_angle_l	mtp_angle_l	lumbar_extension	lumbar_bending	lumbar_rotation	arm_flex_r	arm_add_r	arm_rot_r	elbow_flex_r	pro_sup_r	wrist_flex_r	wrist_dev_r	arm_flex_l	arm_add_l	arm_rot_l	elbow_flex_l	pro_sup_l	wrist_flex_l	wrist_dev_l
      0.00000000	      2.42426119	     -4.32415368	      6.35882766	     -0.34653498	      1.06171858	      0.02693111	     79.23733793	    -14.29024988	     -0.40901447	    115.32688291	      2.01283382	     -5.27321966	    -15.05681252	      0.00000000	     30.74750851	     -8.05692543	      2.67760760	     37.04301771	      0.64652262	    -20.95588054	     -8.65862617	      0.00000000	    -67.27642183	      9.14254194	      4.41970662	     87.68151748	     -6.89495052	      6.98296923	     45.09599303	     88.68071117	      0.00000000	      0.00000000	     88.21798300	     -6.28886121	     12.36129347	     39.44492622	     81.17994462	      0.00000000	      0.00000000
      0.00833333	      2.47674867	     -4.30515939	      6.47464565	     -0.34657407	      1.06234586	      0.02725544	     79.97774154	    -14.24489544	     -0.47794351	    114.48604308	      1.99815840	     -5.41021398	    -15.02416915	      0.00000000	     30.57156824	     -8.18860027	      2.74073763	     38.22722025	      0.66719086	    -20.94518022	     -8.86326348	      0.00000000	    -67.37900216	      9.18813493	      4.38115295	     87.72150114	     -7.01439420	      7.22702445	     45.13907902	     88.69256693	      0.00000000	      0.00000000	     88.27402640	     -6.41238957	     12.50200539	     39.39036240	     80.20482293	      0.00000000	      0.00000000
      0.01666667	      2.30825759	     -4.31317432	      6.51324889	     -0.34676275	      1.06258137	      0.02781120	     80.84254590	    -14.21766642	     -0.59385425	    113.54818331	      1.98178966	     -5.49129409	    -14.91645950	      0.00000000	     30.82141480	     -8.28886440	      3.08395377	     39.66994559	      0.69237116	    -20.64429334	     -8.83427451	      0.00000000	    -67.27248736	      9.15745327	      4.39155039	     87.70087035	     -7.00475440	      7.02880514	     45.14984434	     88.75789620	      0.00000000	      0.00000000	     88.32481740	     -6.40000764	     12.59502654	     39.44248174	     79.59875401	      0.00000000	      0.00000000
      0.02500000	      2.08920930	     -4.25234477	      6.73320772	     -0.34717119	      1.06259019	      0.02798441	     81.56236832	    -14.40940140	     -0.67368274	    112.45454823	      1.96270213	     -5.67494357	    -14.93251660	      0.00000000	     31.31131824	     -8.23400256	      3.41046469	     41.34038047	      0.72152575	    -20.47369237	     -8.73446305	      0.00000000	    -67.09957622	      9.25475533	      4.16359968	     87.72872293	     -6.79585728	      6.40812532	     45.09881015	     88.77289046	      0.00000000	      0.00000000	     88.36141397	     -6.38788275	     12.45768754	     39.69621482	     78.14440455	      0.00000000	      0.00000000
      0.03333333	      1.87791851	     -4.39531658	      6.71811078	     -0.34752527	      1.06269363	      0.02865533	     81.96170939	    -14.13273895	     -1.03936549	    111.05734685	      1.93831636	     -5.61193619	    -15.49339442	      0.00000000	     31.97369161	     -8.42751471	      3.82200191	     43.29346233	      0.75561346	    -20.27454928	     -9.41294719	      0.00000000	    -66.96918738	      9.21813423	      4.27548090	     87.78826537	     -7.01845267	      7.02297450	     45.18736950	     88.66221693	      0.00000000	      0.00000000	     88.39096364	     -6.23168443	     12.21739190	     39.72185249	     80.80030858	      0.00000000	      0.00000000
